<svg width="24" height="24" viewBox="0 0 24 24" fill="none" xmlns="http://www.w3.org/2000/svg">
<path d="M12.078 4.79004C7.30371 3.16245 4.91656 2.34866 3.63261 3.63261C2.34866 4.91656 3.16245 7.30371 4.79003 12.078L5.89837 15.3292C7.14834 18.9958 7.77332 20.8291 8.80355 20.9808C9.08053 21.0216 9.36724 20.9971 9.64127 20.9091C10.6605 20.5819 11.1993 18.6489 12.2769 14.783C12.5159 13.9255 12.6354 13.4967 12.9076 13.1692C12.9866 13.0742 13.0742 12.9866 13.1692 12.9076C13.4967 12.6354 13.9255 12.5159 14.783 12.2769C18.6489 11.1993 20.5819 10.6605 20.9091 9.64127C20.9971 9.36724 21.0216 9.08053 20.9808 8.80355C20.8291 7.77332 18.9958 7.14834 15.3292 5.89838L12.078 4.79004Z" stroke="#141B34" stroke-width="1.5"/>
</svg>
