<svg width="532" height="119" viewBox="0 0 532 119" fill="none" xmlns="http://www.w3.org/2000/svg">
<path d="M55.8231 21.0553C56.5182 16.1974 61.0616 12.7478 65.7201 14.2907C72.5095 16.5394 78.7717 20.2301 84.0583 25.1488C91.5255 32.0962 96.6894 41.161 98.8574 51.1271C101.025 61.0933 100.094 71.4841 96.1873 80.9055C92.2809 90.327 85.5867 98.3286 77.0028 103.837C68.4188 109.345 58.3556 112.096 48.1633 111.721C37.971 111.347 28.137 107.864 19.9806 101.741C11.8242 95.6171 5.73549 87.1457 2.53138 77.4629C0.262889 70.6075 -0.482887 63.377 0.301969 56.268C0.84049 51.3903 5.8695 48.6975 10.5752 50.0899C15.2809 51.4822 17.8322 56.4623 17.7735 61.3693C17.731 64.9188 18.2749 68.4713 19.4028 71.88C21.4681 78.1213 25.3927 83.5818 30.6502 87.5289C35.9076 91.4759 42.2464 93.7208 48.8161 93.9623C55.3859 94.2038 61.8723 92.4304 67.4053 88.88C72.9384 85.3295 77.2533 80.1719 79.7712 74.0991C82.2892 68.0262 82.8897 61.3285 81.4923 54.9046C80.0949 48.4806 76.7664 42.6377 71.9532 38.1596C69.3245 35.7139 66.3217 33.7392 63.0774 32.2988C58.5922 30.3076 55.1281 25.9132 55.8231 21.0553Z" fill="#5353CB"/>
<path d="M45.2532 0.186879C50.0566 1.19208 53.2077 5.9475 51.3692 10.4975C47.9214 19.0298 42.1607 26.5026 34.658 32.0273C27.1553 37.552 18.3094 40.8349 9.13813 41.5947C4.24751 41.9998 0.641753 37.5792 1.10761 32.694C1.57347 27.8087 5.97316 24.3514 10.8007 23.4697C15.5828 22.5962 20.1444 20.6451 24.1206 17.7172C28.0968 14.7893 31.314 11.0125 33.5675 6.70508C35.8425 2.35686 40.4499 -0.818323 45.2532 0.186879Z" fill="#5AD0E0"/>
<path d="M202.832 60.6361C202.832 68.4723 201.365 75.1839 198.429 80.771C195.517 86.3345 191.54 90.5958 186.497 93.5551C181.478 96.5144 175.785 97.9941 169.416 97.9941C163.048 97.9941 157.342 96.5144 152.3 93.5551C147.281 90.5722 143.304 86.299 140.368 80.7355C137.456 75.1484 136 68.4486 136 60.6361C136 52.7999 137.456 46.1001 140.368 40.5367C143.304 34.9495 147.281 30.6763 152.3 27.7171C157.342 24.7578 163.048 23.2781 169.416 23.2781C175.785 23.2781 181.478 24.7578 186.497 27.7171C191.54 30.6763 195.517 34.9495 198.429 40.5367C201.365 46.1001 202.832 52.7999 202.832 60.6361ZM189.587 60.6361C189.587 55.12 188.723 50.468 186.994 46.6801C185.29 42.8686 182.922 39.9922 179.892 38.0509C176.862 36.0859 173.37 35.1034 169.416 35.1034C165.463 35.1034 161.971 36.0859 158.94 38.0509C155.91 39.9922 153.531 42.8686 151.803 46.6801C150.098 50.468 149.246 55.12 149.246 60.6361C149.246 66.1522 150.098 70.816 151.803 74.6276C153.531 78.4155 155.91 81.2919 158.94 83.2568C161.971 85.1981 165.463 86.1688 169.416 86.1688C173.37 86.1688 176.862 85.1981 179.892 83.2568C182.922 81.2919 185.29 78.4155 186.994 74.6276C188.723 70.816 189.587 66.1522 189.587 60.6361Z" fill="black"/>
<path d="M214.72 96.9997V42.4543H227.184V51.5452H227.752C228.747 48.3965 230.451 45.9699 232.866 44.2654C235.305 42.5371 238.086 41.673 241.211 41.673C241.922 41.673 242.715 41.7085 243.591 41.7796C244.49 41.8269 245.236 41.9098 245.828 42.0281V53.8534C245.283 53.664 244.419 53.4983 243.235 53.3563C242.075 53.1905 240.951 53.1077 239.862 53.1077C237.518 53.1077 235.411 53.6167 233.541 54.6347C231.694 55.629 230.238 57.0139 229.173 58.7895C228.108 60.5651 227.575 62.6129 227.575 64.933V96.9997H214.72Z" fill="black"/>
<path d="M275.844 118.591C271.227 118.591 267.262 117.963 263.947 116.709C260.633 115.477 257.97 113.82 255.957 111.737C253.945 109.654 252.548 107.345 251.767 104.812L263.344 102.007C263.865 103.072 264.622 104.126 265.616 105.167C266.611 106.233 267.948 107.109 269.629 107.795C271.334 108.505 273.476 108.861 276.057 108.861C279.703 108.861 282.721 107.973 285.112 106.197C287.503 104.445 288.699 101.557 288.699 97.5324V87.1986H288.06C287.397 88.5244 286.426 89.8856 285.148 91.2824C283.893 92.6792 282.224 93.8511 280.141 94.798C278.081 95.745 275.489 96.2185 272.364 96.2185C268.173 96.2185 264.374 95.236 260.964 93.271C257.579 91.2824 254.88 88.3231 252.868 84.3932C250.879 80.4396 249.885 75.4917 249.885 69.5494C249.885 63.5599 250.879 58.5054 252.868 54.3861C254.88 50.2431 257.591 47.1063 261 44.9756C264.409 42.8212 268.209 41.7441 272.399 41.7441C275.595 41.7441 278.223 42.2886 280.283 43.3776C282.366 44.4429 284.023 45.7332 285.254 47.2483C286.485 48.7398 287.42 50.1484 288.06 51.4742H288.77V42.4543H301.447V97.8875C301.447 102.551 300.335 106.41 298.109 109.464C295.884 112.518 292.842 114.803 288.983 116.318C285.124 117.833 280.744 118.591 275.844 118.591ZM275.95 86.1333C278.673 86.1333 280.993 85.4704 282.911 84.1446C284.828 82.8189 286.284 80.9131 287.278 78.4273C288.273 75.9415 288.77 72.9585 288.77 69.4784C288.77 66.0457 288.273 63.039 287.278 60.4585C286.308 57.878 284.864 55.8776 282.946 54.4571C281.052 53.013 278.72 52.2909 275.95 52.2909C273.086 52.2909 270.695 53.0367 268.777 54.5281C266.859 56.0196 265.415 58.0674 264.445 60.6716C263.474 63.2521 262.989 66.1877 262.989 69.4784C262.989 72.8165 263.474 75.7403 264.445 78.2497C265.439 80.7355 266.895 82.6768 268.812 84.0736C270.754 85.4467 273.133 86.1333 275.95 86.1333Z" fill="black"/>
<path d="M330.318 98.1006C326.862 98.1006 323.749 97.4851 320.979 96.254C318.232 94.9993 316.054 93.1527 314.445 90.7142C312.858 88.2758 312.065 85.2691 312.065 81.6943C312.065 78.6167 312.634 76.0717 313.77 74.0594C314.906 72.0471 316.457 70.4372 318.422 69.2298C320.387 68.0225 322.6 67.111 325.062 66.4955C327.548 65.8563 330.117 65.3946 332.768 65.1105C335.964 64.7791 338.557 64.4832 340.545 64.2227C342.534 63.9387 343.978 63.5125 344.878 62.9443C345.801 62.3525 346.263 61.441 346.263 60.21V59.9969C346.263 57.3217 345.47 55.2502 343.884 53.7824C342.297 52.3146 340.013 51.5807 337.03 51.5807C333.881 51.5807 331.384 52.2673 329.537 53.6404C327.714 55.0135 326.483 56.6352 325.844 58.5054L313.841 56.8009C314.788 53.4865 316.35 50.7166 318.528 48.4912C320.706 46.2422 323.37 44.5613 326.518 43.4486C329.667 42.3122 333.147 41.7441 336.959 41.7441C339.587 41.7441 342.203 42.0518 344.807 42.6673C347.411 43.2829 349.79 44.3009 351.945 45.7213C354.099 47.1181 355.827 49.0239 357.129 51.4387C358.455 53.8534 359.118 56.8719 359.118 60.4941V96.9997H346.76V89.5068H346.334C345.553 91.022 344.452 92.4424 343.031 93.7682C341.634 95.0703 339.871 96.1238 337.74 96.9287C335.633 97.71 333.159 98.1006 330.318 98.1006ZM333.656 88.6546C336.237 88.6546 338.474 88.1456 340.368 87.1276C342.262 86.0859 343.718 84.7128 344.736 83.0083C345.777 81.3037 346.298 79.4453 346.298 77.433V71.0054C345.896 71.3369 345.209 71.6446 344.239 71.9287C343.292 72.2128 342.226 72.4614 341.043 72.6744C339.859 72.8875 338.687 73.0769 337.527 73.2426C336.367 73.4084 335.361 73.5504 334.509 73.6688C332.591 73.9292 330.875 74.3553 329.359 74.9472C327.844 75.539 326.649 76.3676 325.773 77.433C324.897 78.4746 324.459 79.8241 324.459 81.4813C324.459 83.8487 325.323 85.6361 327.051 86.8435C328.779 88.0509 330.981 88.6546 333.656 88.6546Z" fill="black"/>
<path d="M384.899 65.0395V96.9997H372.044V42.4543H384.331V51.7227H384.97C386.225 48.6688 388.225 46.2422 390.972 44.4429C393.741 42.6437 397.162 41.7441 401.234 41.7441C404.999 41.7441 408.277 42.549 411.071 44.1588C413.888 45.7687 416.066 48.1006 417.605 51.1546C419.168 54.2085 419.937 57.9136 419.913 62.2696V96.9997H407.058V64.2583C407.058 60.6124 406.111 57.7597 404.217 55.7C402.347 53.6404 399.755 52.6105 396.44 52.6105C394.191 52.6105 392.191 53.1077 390.439 54.102C388.711 55.0727 387.349 56.4813 386.355 58.3279C385.384 60.1745 384.899 62.4117 384.899 65.0395Z" fill="black"/>
<path d="M432.982 96.9997V42.4543H445.837V96.9997H432.982ZM439.445 34.7128C437.409 34.7128 435.657 34.0381 434.189 32.6887C432.721 31.3155 431.987 29.6702 431.987 27.7526C431.987 25.8113 432.721 24.1659 434.189 22.8165C435.657 21.4434 437.409 20.7568 439.445 20.7568C441.504 20.7568 443.256 21.4434 444.7 22.8165C446.168 24.1659 446.902 25.8113 446.902 27.7526C446.902 29.6702 446.168 31.3155 444.7 32.6887C443.256 34.0381 441.504 34.7128 439.445 34.7128Z" fill="black"/>
<path d="M469.567 42.4543L480.576 62.5892L491.762 42.4543H505.363L488.921 69.727L505.647 96.9997H492.117L480.576 77.3619L469.141 96.9997H455.505L472.124 69.727L455.931 42.4543H469.567Z" fill="black"/>
<path d="M523.225 97.781C521.07 97.781 519.224 97.0234 517.685 95.5083C516.146 93.9931 515.389 92.1465 515.412 89.9685C515.389 87.8378 516.146 86.0149 517.685 84.4997C519.224 82.9846 521.07 82.227 523.225 82.227C525.308 82.227 527.119 82.9846 528.658 84.4997C530.221 86.0149 531.014 87.8378 531.037 89.9685C531.014 91.4126 530.635 92.7265 529.901 93.9102C529.191 95.094 528.244 96.0409 527.06 96.7512C525.9 97.4377 524.622 97.781 523.225 97.781Z" fill="black"/>
</svg>
